PathFileType	4	(X/Y/Z)	D:\TRACE\spot_10-12-23\spot_body_motion_3_4-platform.trc
DataRate	CameraRate	NumFrames	NumMarkers	Units	OrigDataRate	OrigDataStartFrame	OrigNumFrames
100.00	100.00	      66	5	mm	100.00	1	      7000
Frame#	Time	Left_Front			Right_Front			Left_Aft			Right_Aft			Post			
		X1	Y1	Z1	X2	Y2	Z2	X3	Y3	Z3	X4	Y4	Z4	X5	Y5	Z5	

1	0.000	-819.93188	123.64329	-602.33344	752.82587	126.97664	-595.64978	-736.36841	-78.84645	517.44916	681.10687	-89.64050	602.54071	-37.48699	905.68365	-784.35437	
2	0.010	-819.89258	123.62171	-602.39325	752.78076	126.95256	-595.61853	-736.40546	-78.88257	517.43634	681.12018	-89.63940	602.52942	-37.43985	905.68298	-784.30450	
3	0.020	-819.90900	123.61079	-602.41241	752.80115	126.93579	-595.63019	-736.39972	-78.87929	517.40820	681.12012	-89.61646	602.48792	-37.50022	905.66870	-784.28278	
4	0.030	-819.91779	123.61478	-602.40405	752.77649	126.94587	-595.66223	-736.40833	-78.89684	517.40619	681.14044	-89.63818	602.49329	-37.47025	905.65399	-784.25116	
5	0.040	-819.97388	123.63172	-602.34869	752.74786	126.99521	-595.61414	-736.39758	-78.83751	517.44879	681.10352	-89.63447	602.54547	-37.52232	905.63348	-784.22504	
6	0.050	-819.98706	123.64413	-602.34357	752.81757	126.99047	-595.63763	-736.38495	-78.85769	517.42175	681.12708	-89.64526	602.51147	-37.53621	905.69202	-784.28510	
7	0.060	-819.94141	123.64804	-602.32465	752.75861	126.97611	-595.64313	-736.42303	-78.85136	517.40173	681.07996	-89.62108	602.55652	-37.55522	905.72174	-784.30798	
8	0.070	-819.93475	123.66422	-602.34924	752.82904	126.98272	-595.65857	-736.38031	-78.89716	517.37494	681.14520	-89.65931	602.51410	-37.42227	905.75769	-784.36420	
9	0.080	-820.08490	123.72484	-602.29926	752.83350	126.98804	-595.61438	-736.40637	-78.86446	517.42334	681.07745	-89.61891	602.52460	-37.42429	905.80090	-784.35187	
10	0.090	-819.91113	123.65643	-602.39417	752.82452	126.99492	-595.66888	-736.39618	-78.86767	517.37274	681.13226	-89.63693	602.51398	-37.46980	905.80951	-784.38147	
11	0.100	-820.09485	123.72842	-602.30768	752.84570	127.02341	-595.64941	-736.35803	-78.85641	517.37329	681.10962	-89.61551	602.55231	-37.42017	905.78870	-784.37195	
12	0.110	-820.05121	123.67679	-602.29156	752.87433	126.99611	-595.66711	-736.40259	-78.79974	517.40131	681.08820	-89.62968	602.51508	-37.43795	905.79510	-784.34064	
13	0.120	-820.07025	123.67486	-602.31927	752.87103	126.96153	-595.65411	-736.41968	-78.82350	517.37537	681.07709	-89.58879	602.53082	-37.39334	905.78577	-784.34210	
14	0.130	-819.87653	123.58694	-602.45148	752.84155	126.97852	-595.65625	-736.39709	-78.77598	517.39740	681.13879	-89.60909	602.52380	-37.40454	905.78033	-784.29767	
15	0.140	-819.88684	123.61037	-602.40143	752.82562	126.98070	-595.64246	-736.39246	-78.85789	517.36475	681.11011	-89.58310	602.53748	-37.39314	905.73999	-784.26599	
16	0.150	-819.92548	123.60733	-602.39526	752.79126	126.98534	-595.67316	-736.39337	-78.86393	517.39539	681.10120	-89.64021	602.52118	-37.38415	905.78174	-784.33600	
17	0.160	-819.91223	123.63760	-602.41687	752.81049	126.96873	-595.63593	-736.43317	-78.88855	517.41528	681.06567	-89.63651	602.52966	-37.40336	905.84094	-784.36707	
18	0.170	-820.07098	123.71606	-602.32446	752.81519	126.97499	-595.64264	-736.40497	-78.90244	517.41919	681.09637	-89.65076	602.56702	-37.41129	905.86835	-784.37292	
19	0.180	-819.90155	123.64499	-602.37347	752.84235	127.00700	-595.63312	-736.38214	-78.91199	517.40948	681.09241	-89.65873	602.53955	-37.40041	905.85413	-784.39496	
20	0.190	-819.91833	123.62421	-602.36963	752.79340	126.96670	-595.67542	-736.41779	-78.85880	517.44482	681.07745	-89.64182	602.52588	-37.45876	905.91571	-784.36407	
21	0.200	-819.93127	123.60880	-602.39557	752.80176	126.98015	-595.64697	-736.41101	-78.86594	517.37952	681.13239	-89.65143	602.51727	-37.37884	905.77783	-784.34619	
22	0.210	-819.91846	123.61928	-602.38971	752.78168	126.94272	-595.63708	-736.34613	-78.90298	517.45471	681.06409	-89.62453	602.55066	-37.01385	905.67737	-784.29962	
23	0.220	-819.93671	123.61267	-602.36066	752.83069	126.96394	-595.66656	-736.41052	-78.88193	517.39209	681.11792	-89.66077	602.54517	-37.62412	905.77521	-784.31140	
24	0.230	-819.89740	123.59901	-602.40094	752.81549	126.93465	-595.65161	-736.35913	-78.85857	517.38464	681.09167	-89.61427	602.54272	-37.64074	905.78998	-784.29730	
25	0.240	-819.88776	123.61760	-602.43292	752.80780	126.92558	-595.65338	-736.41132	-78.85057	517.37000	681.13599	-89.62672	602.53455	-37.63974	905.79199	-784.30225	
26	0.250	-819.89948	123.61243	-602.38519	752.82434	126.95579	-595.62299	-736.43109	-78.82420	517.40723	681.07330	-89.59016	602.50977	-37.65123	905.81378	-784.35931	
27	0.260	-819.91693	123.62531	-602.37274	752.82495	126.98234	-595.66522	-736.34955	-78.84193	517.42371	681.09430	-89.64520	602.50165	-37.64780	905.82111	-784.35614	
28	0.270	-819.90381	123.65583	-602.36218	752.84271	126.99108	-595.65436	-736.41821	-78.85378	517.37634	681.07587	-89.62772	602.51044	-37.67320	905.84882	-784.36829	
29	0.280	-820.05164	123.67712	-602.29218	752.84814	127.03173	-595.65918	-736.36255	-78.82553	517.39319	681.09290	-89.64622	602.52942	-37.65236	905.84277	-784.36755	
30	0.290	-820.03534	123.67068	-602.30261	752.87305	126.98858	-595.62262	-736.42157	-78.79722	517.38269	681.10846	-89.62662	602.54651	-37.74120	905.99420	-784.39990	
31	0.300	-820.03387	123.67432	-602.34381	752.85962	126.95210	-595.65649	-736.37830	-78.80614	517.35437	681.12921	-89.60849	602.53424	-37.65594	905.87610	-784.36658	
32	0.310	-819.91711	123.61703	-602.37622	752.81500	126.99438	-595.65521	-736.40546	-78.83248	517.35168	681.09784	-89.59450	602.52368	-37.73726	905.88806	-784.33746	
33	0.320	-819.95544	123.62590	-602.40417	752.81616	127.00141	-595.65973	-736.36835	-78.88000	517.38397	681.08466	-89.60371	602.53162	-37.66222	905.84283	-784.31140	
34	0.330	-819.91064	123.61706	-602.34991	752.81311	126.97234	-595.61981	-736.37988	-78.82807	517.38708	681.06079	-89.62057	602.51154	-37.67492	905.85565	-784.32056	
35	0.340	-819.92285	123.62852	-602.35516	752.83380	126.95060	-595.65417	-736.40631	-78.83903	517.43225	681.10840	-89.62560	602.54010	-37.56858	905.86511	-784.29309	
36	0.350	-819.91724	123.60834	-602.37726	752.83276	126.94241	-595.64148	-736.39923	-78.85925	517.39343	681.07880	-89.62006	602.50745	-37.66771	905.85620	-784.34399	
37	0.360	-819.93921	123.64299	-602.39783	752.81177	126.97581	-595.62714	-736.38757	-78.88465	517.40936	681.12299	-89.64824	602.49365	-37.62213	905.86639	-784.38306	
38	0.370	-819.96918	123.64722	-602.35632	752.79950	126.96422	-595.64441	-736.38013	-78.92628	517.43225	681.07098	-89.65686	602.53894	-37.62140	905.88049	-784.37329	
39	0.380	-819.96875	123.64163	-602.34747	752.82227	126.94829	-595.64728	-736.39563	-78.91094	517.45038	681.09650	-89.65425	602.54126	-37.65238	905.81287	-784.36182	
40	0.390	-819.95038	123.62548	-602.36316	752.79388	126.93634	-595.64569	-736.38654	-78.87130	517.39716	681.08490	-89.65434	602.56580	-37.60217	905.81189	-784.33356	
41	0.400	-819.93671	123.62263	-602.38300	752.80994	126.98227	-595.64807	-736.39984	-78.83089	517.43683	681.11407	-89.64993	602.53815	-37.58744	905.74103	-784.33331	
42	0.410	-819.90643	123.65458	-602.40991	752.77448	126.99200	-595.63470	-736.38062	-78.88775	517.41858	681.08630	-89.62253	602.47882	-37.54309	905.71747	-784.31299	
43	0.420	-819.90833	123.62328	-602.40771	752.82758	126.95322	-595.63190	-736.42755	-78.82245	517.42902	681.09558	-89.61836	602.51184	-37.52874	905.67719	-784.30994	
44	0.430	-819.89050	123.56775	-602.41406	752.81854	126.95036	-595.64337	-736.40485	-78.83456	517.38123	681.07440	-89.58235	602.52417	-37.54013	905.65039	-784.31226	
45	0.440	-819.89722	123.59731	-602.42529	752.79822	126.97523	-595.68231	-736.40057	-78.82108	517.41693	681.10077	-89.61361	602.51862	-37.51385	905.65540	-784.31805	
46	0.450	-819.89026	123.59379	-602.40002	752.86713	126.95098	-595.65643	-736.38092	-78.80050	517.39471	681.11365	-89.57698	602.52673	-37.46987	905.69904	-784.37390	
47	0.460	-820.05487	123.68413	-602.33038	752.83624	126.97109	-595.63574	-736.38025	-78.79499	517.36035	681.12061	-89.60198	602.54053	-37.45557	905.79803	-784.38275	
48	0.470	-820.06842	123.71920	-602.31213	752.87164	127.01833	-595.64648	-736.39972	-78.85580	517.38678	681.11786	-89.62894	602.50006	-37.44106	905.82251	-784.40631	
49	0.480	-819.90295	123.66900	-602.38196	752.80536	126.99210	-595.64191	-736.40710	-78.81160	517.37903	681.11200	-89.64193	602.52576	-37.43207	905.84058	-784.39581	
50	0.490	-819.89655	123.63010	-602.39337	752.82196	127.00235	-595.67035	-736.37152	-78.83080	517.42902	681.12885	-89.62338	602.55322	-37.45519	905.82245	-784.36938	
51	0.500	-819.88062	123.63132	-602.37079	752.82764	126.97260	-595.61554	-736.34235	-78.84486	517.39398	681.07959	-89.60843	602.54504	-37.50578	905.74341	-784.31989	
52	0.510	-820.06750	123.70016	-602.31293	752.81689	126.99738	-595.64832	-736.39014	-78.86604	517.34436	681.09839	-89.62197	602.53253	-37.48092	905.71875	-784.26447	
53	0.520	-820.04205	123.63932	-602.29926	752.79755	126.99379	-595.66296	-736.40063	-78.85704	517.42633	681.06946	-89.62268	602.53046	-37.48429	905.65656	-784.22327	
54	0.530	-820.03308	123.65827	-602.34723	752.83929	126.93929	-595.62756	-736.34888	-78.84411	517.44397	681.11169	-89.61606	602.51672	-37.49931	905.64929	-784.23615	
55	0.540	-820.05499	123.65649	-602.33838	752.78790	126.93725	-595.68622	-736.37469	-78.82243	517.37091	681.04468	-89.63068	602.52856	-37.49557	905.62787	-784.23828	
56	0.550	-820.06812	123.66549	-602.33044	752.83264	126.94933	-595.67340	-736.42651	-78.77287	517.39136	681.10382	-89.63544	602.54071	-37.48748	905.64575	-784.30170	
57	0.560	-820.07318	123.68528	-602.34344	752.75757	126.95062	-595.64612	-736.44470	-78.79781	517.36407	681.07257	-89.64207	602.52173	-37.49081	905.67676	-784.36542	
58	0.570	-820.06415	123.70470	-602.28918	752.80847	126.99325	-595.65790	-736.41217	-78.81779	517.36597	681.07574	-89.63761	602.54419	-37.46865	905.74567	-784.44147	
59	0.580	-820.06201	123.69553	-602.34509	752.80212	127.01311	-595.66479	-736.38324	-78.86831	517.41272	681.11395	-89.66663	602.53912	-37.40993	905.78558	-784.43610	
60	0.590	-820.07532	123.70388	-602.32605	752.80261	126.95569	-595.66559	-736.40216	-78.86217	517.41522	681.12915	-89.63923	602.49994	-37.44457	905.76660	-784.42346	
61	0.600	-820.07581	123.68504	-602.33057	752.83533	126.95235	-595.67230	-736.36938	-78.88073	517.37921	681.10767	-89.61448	602.53064	-37.46729	905.73712	-784.38232	
62	0.610	-820.06348	123.65537	-602.32953	752.81458	126.98978	-595.64606	-736.37903	-78.86243	517.40228	681.11078	-89.62274	602.52991	-37.49773	905.68341	-784.31012	
63	0.620	-819.89111	123.63935	-602.39697	752.85236	127.02241	-595.64587	-736.43231	-78.81322	517.40228	681.12042	-89.60090	602.48334	-37.52560	905.76215	-784.27325	
64	0.630	-820.07965	123.69813	-602.32739	752.85480	126.98759	-595.63141	-736.42206	-78.76624	517.38812	681.07721	-89.57133	602.49908	-37.45395	905.75616	-784.19275	
65	0.640	-820.08862	123.71216	-602.34149	752.79572	127.00653	-595.66846	-736.40051	-78.81664	517.41040	681.11011	-89.58940	602.52301	-37.50110	905.74396	-784.20355	
66	0.650	-819.93402	123.62231	-602.38611	752.82538	126.97955	-595.63263	-736.44354	-78.82855	517.40930	681.09387	-89.61028	602.52899	-37.52329	905.72174	-784.23999	
